<svg role="img" viewBox="0 0 24 24" xmlns="http://www.w3.org/2000/svg"><title>Complex</title><g transform="translate(-0.0000 -0.0000) scale(0.036923)"><g transform="translate(0.000000,650.000000) scale(0.100000,-0.100000)"
fill="currentColor"><path d="M0 3250 l0 -3250 3250 0 3250 0 0 3250 0 3250 -3250 0 -3250 0 0
-3250z m1898 2441 c145 -50 237 -146 294 -306 40 -112 52 -196 52 -390 l1
-180 -290 0 -290 0 -3 189 c-2 159 -5 193 -19 208 -21 24 -58 23 -83 -2 -20
-20 -20 -33 -20 -714 l0 -695 26 -20 c26 -20 38 -21 350 -21 l324 0 0 -250 0
-250 -407 0 c-316 0 -423 4 -476 15 -183 39 -313 171 -379 387 -22 72 -22 81
-26 789 -3 782 0 850 53 981 64 159 200 252 412 278 37 5 147 7 243 6 149 -3
184 -6 238 -25z m1374 5 c182 -39 298 -155 340 -341 18 -83 19 -1673 1 -1751
-48 -203 -154 -308 -353 -350 -60 -13 -124 -15 -330 -12 -223 4 -263 7 -317
25 -159 53 -249 151 -288 315 -22 93 -22 1692 0 1785 41 176 155 290 327 327
90 20 529 21 620 2z m1222 -43 c3 -21 36 -263 72 -538 36 -275 66 -500 68
-502 1 -1 32 233 70 520 37 287 70 530 72 540 5 16 32 17 390 17 l384 0 0
-1215 0 -1215 -290 0 -290 0 -1 528 c-1 290 -4 516 -7 502 -2 -14 -32 -250
-66 -525 l-61 -500 -197 -3 c-158 -2 -198 0 -198 11 0 17 -129 1008 -134 1027
-2 8 -4 -222 -5 -512 l-1 -528 -290 0 -290 0 0 1215 0 1215 384 0 384 0 6 -37z
m-284 -2768 l0 -235 -210 0 c-209 0 -210 0 -215 -22 -3 -13 -4 -106 -2 -208
l2 -185 203 -3 202 -2 0 -235 0 -235 -202 -2 -203 -3 0 -220 0 -220 213 -3
212 -2 0 -235 0 -235 -490 0 -490 0 0 1140 0 1140 490 0 490 0 0 -235z m-2315
197 c131 -49 209 -138 245 -276 18 -71 20 -111 20 -381 0 -166 -4 -324 -9
-351 -34 -178 -131 -285 -297 -328 -42 -11 -107 -16 -203 -16 l-141 0 0 -445
0 -445 -280 0 -280 0 0 1136 0 1135 443 -3 c429 -4 444 -4 502 -26z m895 -872
l0 -900 165 0 165 0 0 -235 0 -235 -440 0 -440 0 0 1135 0 1135 275 0 275 0 0
-900z m2050 893 c0 -21 82 -510 88 -526 4 -11 29 88 63 255 l55 273 247 3
c194 2 247 0 247 -10 -1 -7 -65 -254 -144 -547 l-143 -535 148 -585 c82 -323
149 -587 149 -588 0 -2 -128 -3 -284 -3 l-285 0 -10 52 c-6 29 -29 156 -51
283 -23 126 -42 231 -44 232 -2 3 -83 -384 -112 -534 l-6 -33 -249 0 c-137 0
-249 1 -249 3 0 1 67 248 149 549 l149 548 -144 572 c-79 315 -144 579 -144
586 0 9 64 12 285 12 157 0 285 -3 285 -7z"/><path d="M2950 5222 c-8 -2 -23 -11 -32 -20 -17 -14 -18 -61 -18 -724 0 -695
0 -708 20 -728 11 -11 31 -20 45 -20 14 0 34 9 45 20 20 20 20 33 20 728 0
663 -1 710 -17 724 -23 19 -44 26 -63 20z"/><path d="M1500 2405 l0 -265 44 0 c74 0 76 8 76 265 0 257 -2 265 -76 265
l-44 0 0 -265z"/></g></g></svg>